<svg xmlns="http://www.w3.org/2000/svg" version="1.1" width="32px" height="32px" viewBox="0 0 800 800" xml:space="preserve">
<g transform="matrix(13.48 0 0 13.48 258.26 594.32)"  >
<g style=""   >
		<g transform="matrix(0.7 0.7 -0.7 0.7 -0.67 0)" id="SVGRepo_iconCarrier"  >
<path style="stroke: none; stroke-width: 1; stroke-dasharray: none; stroke-linecap: butt; stroke-dashoffset: 0; stroke-linejoin: miter; stroke-miterlimit: 4; fill: rgb(0,0,0); fill-rule: nonzero; opacity: 0.2;"  transform=" translate(-29.5, -755.81)" d="m 23.8125 745.28125 c -0.46695 0.0551 -0.823 0.4979 -0.8125 1.09375 v 16 c 0.00005 0.52358 0.47642 0.99995 1 1 h 3.59375 l 2.6875 2.6875 c 0.29466 0.29526 0.78338 0.37451 1.15625 0.1875 l 1 -0.5 c 0.32794 -0.15944 0.55359 -0.51046 0.5625 -0.875 v -3.59375 l 2.71875 -2.71875 c 0.36548 -0.36968 0.36548 -1.03657 0 -1.40625 l -11 -11.5 c -0.3075 -0.3075 -0.62608 -0.40806 -0.90625 -0.375 z" stroke-linecap="round" />
</g>
		<g transform="matrix(0.92 0.38 -0.38 0.92 -1.17 -2.04)" id="SVGRepo_iconCarrier"  >
<path style="stroke: none; stroke-width: 1; stroke-dasharray: none; stroke-linecap: butt; stroke-dashoffset: 0; stroke-linejoin: miter; stroke-miterlimit: 4; fill: rgb(0,0,0); fill-rule: nonzero; opacity: 1;"  transform=" translate(-68.24, -754.11)" d="m 67.488968 743.68351 l -6.122935 14.78208 c -0.20032 0.48374 0.05749 1.10615 0.541196 1.30656 c 0 0 4.069006 0.32223 3.907773 0.30318 l 0.866883 4.58348 c 0.15924 0.38554 0.58043 0.64578 0.996483 0.6157 l 1.115219 -0.0571 c 0.363992 -0.0218 0.706795 -0.25976 0.85453 -0.59314 l 0.973624 -4.63669 l 3.953865 -0.17698 c 0.47913 -0.20168 0.734338 -0.8178 0.538149 -1.29921 l -5.761816 -14.83413 c -0.443775 -1.07137 -1.513658 -0.88092 -1.862971 0.006 z" stroke-linecap="round" />
</g>
		<g transform="matrix(0.92 0.38 -0.38 0.92 -1.2 -1.99)" id="SVGRepo_iconCarrier"  >
<path style="stroke: none; stroke-width: 1; stroke-dasharray: none; stroke-linecap: butt; stroke-dashoffset: 0; stroke-linejoin: miter; stroke-miterlimit: 4; fill: rgb(254,254,254); fill-rule: nonzero; opacity: 1;"  transform=" translate(-68.24, -754.17)" d="m 62.294818 758.83643 l 6.122935 -14.78208 l 5.761815 14.83414 l -4.321335 0.32919 l -1.106991 5.0562 l -1.137317 0.013 l -1.036007 -4.99178 z" stroke-linecap="round" />
</g>
</g>
</g>
<g transform="matrix(12.07 0 0 12.07 465.13 237.13)"  >
<g style=""   >
		<g transform="matrix(0.07 0 0 0.07 -6.21 -7.48)"  >
<rect style="stroke: none; stroke-width: 1; stroke-dasharray: none; stroke-linecap: butt; stroke-dashoffset: 0; stroke-linejoin: miter; stroke-miterlimit: 4; fill: none; fill-rule: nonzero; opacity: 1;"  x="-128" y="-128" rx="0" ry="0" width="256" height="256" />
</g>
		<g transform="matrix(0.07 0 0 0.07 -6.21 -7.48)"  >
<path style="stroke: rgb(0,0,0); stroke-width: 8; stroke-dasharray: none; stroke-linecap: round; stroke-dashoffset: 0; stroke-linejoin: round; stroke-miterlimit: 4; fill: none; fill-rule: nonzero; opacity: 1;"  transform=" translate(-128, -128)" d="M 224 177.3 V 78.7 a 8.1 8.1 0 0 0 -4.1 -7 l -88 -49.5 a 7.8 7.8 0 0 0 -7.8 0 l -88 49.5 a 8.1 8.1 0 0 0 -4.1 7 v 98.6 a 8.1 8.1 0 0 0 4.1 7 l 88 49.5 a 7.8 7.8 0 0 0 7.8 0 l 88 -49.5 A 8.1 8.1 0 0 0 224 177.3 Z" stroke-linecap="round" />
</g>
		<g transform="matrix(0.07 0 0 0.07 -6.21 -9.38)"  >
<polyline style="stroke: rgb(0,0,0); stroke-width: 8; stroke-dasharray: none; stroke-linecap: round; stroke-dashoffset: 0; stroke-linejoin: round; stroke-miterlimit: 4; fill: none; fill-rule: nonzero; opacity: 1;"  points="94.9,-26.7 0.9,26.7 -94.9,-26.7 " />
</g>
		<g transform="matrix(0.07 0 0 0.07 -6.18 -3.67)"  >
<line style="stroke: rgb(0,0,0); stroke-width: 8; stroke-dasharray: none; stroke-linecap: round; stroke-dashoffset: 0; stroke-linejoin: round; stroke-miterlimit: 4; fill: none; fill-rule: nonzero; opacity: 1;"  x1="0.45000000000000284" y1="-53.400000000000006" x2="-0.45000000000000284" y2="53.400000000000006" />
</g>
		<g transform="matrix(0.03 0 0 0.03 8.21 -7.48)" id="SVGRepo_iconCarrier"  >
<path style="stroke: none; stroke-width: 1; stroke-dasharray: none; stroke-linecap: butt; stroke-dashoffset: 0; stroke-linejoin: miter; stroke-miterlimit: 4; fill: rgb(0,0,0); fill-rule: nonzero; opacity: 1;"  transform=" translate(-256, -256)" d="M 425.621 38.187 C 414.763 1.216 272.789 0 256 0 S 97.237 1.216 86.379 38.187 c -0.64 1.387 -1.045 2.859 -1.045 4.48 v 426.667 c 0 1.707 0.469 3.328 1.152 4.843 C 98.155 510.805 239.275 512 256 512 c 16.789 0 158.763 -1.216 169.621 -38.187 c 0.64 -1.387 1.045 -2.859 1.045 -4.48 V 42.667 C 426.667 41.045 426.261 39.573 425.621 38.187 z M 256 21.333 c 87.723 0 137.685 13.248 148.075 21.333 C 393.685 50.752 343.723 64 256 64 S 118.315 50.752 107.925 42.667 C 118.315 34.581 168.277 21.333 256 21.333 z M 256 490.667 c -91.285 0 -141.269 -14.272 -148.437 -20.715 C 115.947 461.952 165.739 448 256 448 c 91.285 0 141.269 14.272 148.437 20.715 C 396.053 476.715 346.24 490.667 256 490.667 z M 405.333 446.571 C 362.688 427.456 269.397 426.667 256 426.667 s -106.688 0.789 -149.333 19.904 V 65.429 C 149.312 84.544 242.603 85.333 256 85.333 s 106.688 -0.789 149.333 -19.904 V 446.571 z" stroke-linecap="round" />
</g>
		<g transform="matrix(0.03 0 0 0.03 -6.25 7.91)" id="SVGRepo_iconCarrier"  >
<path style="stroke: none; stroke-width: 1; stroke-dasharray: none; stroke-linecap: butt; stroke-dashoffset: 0; stroke-linejoin: miter; stroke-miterlimit: 4; fill: rgb(0,0,0); fill-rule: nonzero; opacity: 1;"  transform=" translate(-256, -256)" d="M 256 0 C 114.837 0 0 114.837 0 256 s 114.837 256 256 256 s 256 -114.837 256 -256 S 397.163 0 256 0 z M 319.125 215.147 c 111.381 6.357 171.541 28.523 171.541 40.853 s -60.16 34.496 -171.541 40.853 C 319.701 282.197 320 268.288 320 256 S 319.701 229.803 319.125 215.147 z M 488.704 227.093 c -36.011 -19.883 -107.755 -29.504 -170.624 -33.173 c -3.669 -62.848 -13.291 -134.592 -33.173 -170.624 C 391.189 36.437 475.563 120.811 488.704 227.093 z M 298.667 256 c 0 14.656 -0.341 28.48 -0.832 41.835 c -13.355 0.491 -27.179 0.832 -41.835 0.832 s -28.48 -0.341 -41.835 -0.832 c -0.491 -13.355 -0.832 -27.179 -0.832 -41.835 s 0.341 -28.48 0.832 -41.835 c 13.355 -0.491 27.179 -0.832 41.835 -0.832 s 28.48 0.341 41.835 0.832 C 298.325 227.52 298.667 241.344 298.667 256 z M 256 21.333 c 12.331 0 34.496 60.16 40.853 171.541 C 282.197 192.299 268.288 192 256 192 s -26.197 0.299 -40.853 0.875 C 221.504 81.493 243.669 21.333 256 21.333 z M 227.093 23.296 c -19.883 36.032 -29.504 107.776 -33.173 170.624 c -62.848 3.669 -134.592 13.291 -170.624 33.173 C 36.437 120.811 120.811 36.437 227.093 23.296 z M 192.875 215.147 C 192.299 229.803 192 243.712 192 256 s 0.299 26.197 0.875 40.853 C 81.493 290.496 21.333 268.331 21.333 256 S 81.493 221.504 192.875 215.147 z M 23.296 284.907 c 36.011 19.883 107.755 29.504 170.624 33.173 c 3.669 62.848 13.291 134.592 33.173 170.624 C 120.811 475.563 36.437 391.189 23.296 284.907 z M 256 490.667 c -12.331 0 -34.496 -60.16 -40.853 -171.541 C 229.803 319.701 243.712 320 256 320 s 26.197 -0.299 40.853 -0.875 C 290.496 430.507 268.331 490.667 256 490.667 z M 284.907 488.704 c 19.883 -36.011 29.504 -107.755 33.173 -170.624 c 62.848 -3.669 134.592 -13.291 170.624 -33.173 C 475.563 391.189 391.189 475.563 284.907 488.704 z" stroke-linecap="round" />
</g>
		<g transform="matrix(0.03 0 0 0.03 8.2 7.7)" id="SVGRepo_iconCarrier"  >
<path style="stroke: none; stroke-width: 1; stroke-dasharray: none; stroke-linecap: butt; stroke-dashoffset: 0; stroke-linejoin: miter; stroke-miterlimit: 4; fill: rgb(0,0,0); fill-rule: nonzero; opacity: 1;"  transform=" translate(-255.96, -255.96)" d="M 426.624 469.269 c 0 -0.043 -0.021 -0.064 -0.021 -0.107 c 0 -0.597 -0.235 -1.131 -0.32 -1.707 c -0.107 -0.576 -0.043 -1.152 -0.235 -1.707 l -0.192 -0.555 c -0.043 -0.128 -0.085 -0.235 -0.128 -0.363 l -0.448 -1.301 c -0.256 -0.683 -0.363 -1.387 -0.704 -2.048 L 266.069 7.061 c -0.085 -0.235 -0.256 -0.384 -0.341 -0.597 c -0.256 -0.64 -0.661 -1.173 -1.045 -1.749 c -0.384 -0.576 -0.747 -1.173 -1.237 -1.664 c -0.448 -0.448 -1.003 -0.789 -1.536 -1.152 c -0.619 -0.427 -1.195 -0.832 -1.877 -1.109 c -0.192 -0.085 -0.341 -0.256 -0.555 -0.32 c -0.469 -0.171 -0.96 -0.107 -1.451 -0.192 C 257.365 0.149 256.747 0 256.064 0 c -0.832 0 -1.621 0.149 -2.411 0.341 c -0.384 0.085 -0.768 0.021 -1.152 0.171 c -0.171 0.064 -0.277 0.192 -0.448 0.256 c -0.789 0.32 -1.472 0.789 -2.176 1.28 c -0.448 0.32 -0.917 0.597 -1.301 0.981 c -0.533 0.533 -0.939 1.152 -1.344 1.813 c -0.363 0.533 -0.725 1.045 -0.96 1.621 c -0.085 0.213 -0.277 0.363 -0.341 0.597 L 87.339 461.504 c -0.341 0.64 -0.448 1.323 -0.683 1.984 l -0.789 2.24 c -0.235 0.661 -0.171 1.323 -0.277 2.005 c -0.064 0.512 -0.299 0.96 -0.299 1.515 c 0 0.107 0.064 0.213 0.064 0.32 c 0.021 0.661 0.213 1.28 0.363 1.92 c 0.171 0.896 0.341 1.771 0.725 2.603 c 11.669 36.629 152.768 37.824 169.515 37.824 c 16.768 0 158.101 -1.195 169.557 -37.909 c 0.064 -0.128 0.107 -0.277 0.171 -0.427 c 0.192 -0.427 0.213 -0.896 0.363 -1.344 c 0.256 -0.896 0.512 -1.771 0.555 -2.709 c 0 -0.043 0.021 -0.085 0.021 -0.128 C 426.603 469.333 426.624 469.312 426.624 469.269 z M 255.957 42.944 l 139.435 399.701 c -45.739 -15.381 -126.976 -16.064 -139.413 -16.064 c -12.437 0 -93.696 0.683 -139.435 16.064 L 255.957 42.944 z M 255.957 490.56 c -91.285 0.021 -141.269 -14.272 -148.437 -20.715 c 8.384 -8 58.176 -21.952 148.437 -21.952 c 91.285 0 141.269 14.272 148.437 20.715 C 396.011 476.608 346.219 490.56 255.957 490.56 z" stroke-linecap="round" />
</g>
</g>
</g>
</svg>
