<svg xmlns="http://www.w3.org/2000/svg" viewBox="0 0 256 256">
  <rect width="256" height="256" fill="none"/>
  <g stroke="#000" stroke-width="8" fill="none" stroke-linecap="round" stroke-linejoin="round">
    <path d="M 180,150 V 90 a 6,6 0 0 0 -3,-5.2 l -48,-27 a 6,6 0 0 0 -6,0 l -48,27 a 6,6 0 0 0 -3,5.2 v 60 a 6,6 0 0 0 3,5.2 l 48,27 a 6,6 0 0 0 6,0 l 48,-27 a 6,6 0 0 0 3,-5.2 z"/>
    <polyline points="179 87 129 114 79 87"/>
    <line x1="129" y1="114" x2="129" y2="165"/>
    <line x1="50" y1="180" x2="200" y2="180" stroke-width="10"/>
    <polyline points="170 160 200 180 170 200" stroke-width="10"/>
  </g>
</svg>
