<svg xmlns="http://www.w3.org/2000/svg" viewBox="0 0 256 256">
  <rect width="256" height="256" fill="none"/>
  <g stroke="#000" stroke-width="8" fill="none" stroke-linecap="round" stroke-linejoin="round">
    <path d="M 224,177.3 V 78.7 a 8.1,8.1 0 0 0 -4.1,-7 l -88,-49.5 a 7.8,7.8 0 0 0 -7.8,0 l -88,49.5 a 8.1,8.1 0 0 0 -4.1,7 v 98.6 a 8.1,8.1 0 0 0 4.1,7 l 88,49.5 a 7.8,7.8 0 0 0 7.8,0 l 88,-49.5 a 8.1,8.1 0 0 0 4.1,-7 z"/>
    <polyline points="222.9 74.6 128.9 128 33.1 74.6"/>
    <line x1="128.9" y1="128" x2="128" y2="234.8"/>
  </g>
</svg>
